<svg width="191" height="25" viewBox="0 0 191 25" fill="none" xmlns="http://www.w3.org/2000/svg">
<path d="M0 0H20.3292V4.41433H12.8372V24.8689H7.36056V4.41433H0V0Z" fill="white"/>
<path d="M25.4176 25C23.8403 25 22.4675 24.7232 21.2992 24.1696C20.1601 23.616 19.2108 22.9021 18.4514 22.028C17.7211 21.1538 17.1662 20.1923 16.7865 19.1434C16.436 18.0944 16.2607 17.0746 16.2607 16.0839C16.2607 15.0932 16.436 14.0734 16.7865 13.0245C17.1662 11.9464 17.7358 10.9557 18.4952 10.0524C19.2546 9.14918 20.2039 8.42074 21.343 7.86713C22.4821 7.28438 23.8403 7.00758 25.4176 7.03671C26.9949 7.00758 28.3531 7.28438 29.4922 7.86713C30.6313 8.42074 31.5806 9.14918 32.34 10.0524C33.0995 10.9557 33.6544 11.9464 34.0049 13.0245C34.3846 14.0734 34.5745 15.0932 34.5745 16.0839C34.5745 17.0746 34.3846 18.0944 34.0049 19.1434C33.6544 20.1923 33.0995 21.1538 32.34 22.028C31.6098 22.9021 30.6605 23.616 29.4922 24.1696C28.3531 24.7232 26.9949 25 25.4176 25ZM25.4176 19.8864C26.031 19.8864 26.5713 19.7698 27.0387 19.5367C27.5352 19.3036 27.9441 18.9977 28.2654 18.6189C28.6159 18.2401 28.8642 17.8176 29.0103 17.3514C29.1855 16.8852 29.2731 16.4336 29.2731 15.9965C29.2731 15.5594 29.1855 15.1224 29.0103 14.6853C28.835 14.2191 28.5867 13.8112 28.2654 13.4615C27.9441 13.0827 27.5352 12.7768 27.0387 12.5437C26.5713 12.2815 26.031 12.1503 25.4176 12.1503C24.8042 12.1503 24.2493 12.2815 23.7527 12.5437C23.2854 12.7768 22.8911 13.0827 22.5698 13.4615C22.2485 13.8112 22.0002 14.2191 21.825 14.6853C21.6497 15.1224 21.5621 15.5594 21.5621 15.9965C21.5621 16.4336 21.6351 16.8852 21.7811 17.3514C21.9564 17.8176 22.2047 18.2401 22.526 18.6189C22.8765 18.9977 23.2854 19.3036 23.7527 19.5367C24.2493 19.7698 24.8042 19.8864 25.4176 19.8864Z" fill="white"/>
<path d="M54.167 7.03671L49.1286 12.6311L56.3577 24.8689H50.662L45.6674 16.4336L42.9071 19.5804V24.8689H37.7372V0H42.9071V13.5052L48.7342 7.03671H54.167Z" fill="white"/>
<path d="M67.6474 25C66.0701 25 64.6973 24.7232 63.5289 24.1696C62.3898 23.616 61.4405 22.9021 60.6811 22.028C59.9509 21.1538 59.3959 20.1923 59.0162 19.1434C58.6657 18.0944 58.4905 17.0746 58.4905 16.0839C58.4905 15.0932 58.6657 14.0734 59.0162 13.0245C59.3959 11.9464 59.9655 10.9557 60.7249 10.0524C61.4843 9.14918 62.4336 8.42074 63.5728 7.86713C64.7119 7.28438 66.0701 7.00758 67.6474 7.03671C69.2246 7.00758 70.5828 7.28438 71.722 7.86713C72.8611 8.42074 73.8104 9.14918 74.5698 10.0524C75.3292 10.9557 75.8842 11.9464 76.2347 13.0245C76.6144 14.0734 76.8042 15.0932 76.8042 16.0839C76.8042 17.0746 76.6144 18.0944 76.2347 19.1434C75.8842 20.1923 75.3292 21.1538 74.5698 22.028C73.8396 22.9021 72.8903 23.616 71.722 24.1696C70.5828 24.7232 69.2246 25 67.6474 25ZM67.6474 19.8864C68.2607 19.8864 68.8011 19.7698 69.2684 19.5367C69.765 19.3036 70.1739 18.9977 70.4952 18.6189C70.8457 18.2401 71.094 17.8176 71.24 17.3514C71.4153 16.8852 71.5029 16.4336 71.5029 15.9965C71.5029 15.5594 71.4153 15.1224 71.24 14.6853C71.0648 14.2191 70.8165 13.8112 70.4952 13.4615C70.1739 13.0827 69.765 12.7768 69.2684 12.5437C68.8011 12.2815 68.2607 12.1503 67.6474 12.1503C67.034 12.1503 66.479 12.2815 65.9825 12.5437C65.5151 12.7768 65.1208 13.0827 64.7995 13.4615C64.4782 13.8112 64.23 14.2191 64.0547 14.6853C63.8795 15.1224 63.7918 15.5594 63.7918 15.9965C63.7918 16.4336 63.8648 16.8852 64.0109 17.3514C64.1861 17.8176 64.4344 18.2401 64.7557 18.6189C65.1062 18.9977 65.5151 19.3036 65.9825 19.5367C66.479 19.7698 67.034 19.8864 67.6474 19.8864Z" fill="white"/>
<path d="M89.166 24.8689V15.8654C89.166 14.292 89.458 12.9371 90.0422 11.8007C90.6264 10.6352 91.3566 9.68823 92.2329 8.95979C93.1383 8.20221 94.1168 7.6486 95.1683 7.29895C96.249 6.92016 97.2859 6.73077 98.279 6.73077C99.2721 6.73077 100.309 6.92016 101.39 7.29895C102.5 7.6486 103.507 8.20221 104.413 8.95979C105.318 9.71736 106.063 10.6643 106.647 11.8007C107.261 12.9371 107.553 14.292 107.524 15.8654H102.397C102.397 15.2535 102.266 14.7145 102.003 14.2483C101.74 13.7529 101.404 13.345 100.995 13.0245C100.616 12.704 100.192 12.4563 99.7249 12.2815C99.2575 12.1066 98.8048 12.0192 98.3667 12.0192C97.9285 12.0192 97.4612 12.1066 96.9646 12.2815C96.4973 12.4272 96.0592 12.6748 95.6503 13.0245C95.2705 13.345 94.9493 13.7529 94.6864 14.2483C94.4235 14.7145 94.2921 15.2535 94.2921 15.8654V24.8689H89.166Z" fill="white"/>
<path d="M119.975 25C118.397 25 117.025 24.7232 115.856 24.1696C114.717 23.616 113.768 22.9021 113.008 22.028C112.278 21.1538 111.723 20.1923 111.343 19.1434C110.993 18.0944 110.818 17.0746 110.818 16.0839C110.818 15.0932 110.993 14.0734 111.343 13.0245C111.723 11.9464 112.293 10.9557 113.052 10.0524C113.812 9.14918 114.761 8.42074 115.9 7.86713C117.039 7.28438 118.397 7.00758 119.975 7.03671C121.552 7.00758 122.91 7.28438 124.049 7.86713C125.188 8.42074 126.138 9.14918 126.897 10.0524C127.656 10.9557 128.211 11.9464 128.562 13.0245C128.942 14.0734 129.131 15.0932 129.131 16.0839C129.131 17.0746 128.942 18.0944 128.562 19.1434C128.211 20.1923 127.656 21.1538 126.897 22.028C126.167 22.9021 125.218 23.616 124.049 24.1696C122.91 24.7232 121.552 25 119.975 25ZM119.975 19.8864C120.588 19.8864 121.128 19.7698 121.596 19.5367C122.092 19.3036 122.501 18.9977 122.822 18.6189C123.173 18.2401 123.421 17.8176 123.567 17.3514C123.743 16.8852 123.83 16.4336 123.83 15.9965C123.83 15.5594 123.743 15.1224 123.567 14.6853C123.392 14.2191 123.144 13.8112 122.822 13.4615C122.501 13.0827 122.092 12.7768 121.596 12.5437C121.128 12.2815 120.588 12.1503 119.975 12.1503C119.361 12.1503 118.806 12.2815 118.31 12.5437C117.842 12.7768 117.448 13.0827 117.127 13.4615C116.805 13.8112 116.557 14.2191 116.382 14.6853C116.207 15.1224 116.119 15.5594 116.119 15.9965C116.119 16.4336 116.192 16.8852 116.338 17.3514C116.513 17.8176 116.762 18.2401 117.083 18.6189C117.433 18.9977 117.842 19.3036 118.31 19.5367C118.806 19.7698 119.361 19.8864 119.975 19.8864Z" fill="white"/>
<path d="M148.461 25H141.539C139.961 25 138.589 24.7232 137.42 24.1696C136.281 23.616 135.332 22.9021 134.572 22.028C133.842 21.1538 133.287 20.1923 132.908 19.1434C132.557 18.0944 132.382 17.0746 132.382 16.0839C132.382 15.0932 132.557 14.0734 132.908 13.0245C133.287 11.9464 133.857 10.9557 134.616 10.0524C135.376 9.14918 136.325 8.42074 137.464 7.86713C138.603 7.28438 139.961 7.00758 141.539 7.03671H148.461V12.1503H141.539C140.925 12.1503 140.37 12.2815 139.874 12.5437C139.406 12.7768 139.012 13.0827 138.691 13.4615C138.37 13.8112 138.121 14.2191 137.946 14.6853C137.771 15.1224 137.683 15.5594 137.683 15.9965C137.683 16.4336 137.756 16.8852 137.902 17.3514C138.078 17.8176 138.326 18.2401 138.647 18.6189C138.998 18.9977 139.406 19.3036 139.874 19.5367C140.37 19.7698 140.925 19.8864 141.539 19.8864H148.461V25Z" fill="white"/>
<path d="M168.363 7.03671L163.324 12.6311L170.553 24.8689H164.858L159.863 16.4336L157.103 19.5804V24.8689H151.933V0H157.103V13.5052L162.93 7.03671H168.363Z" fill="white"/>
<path d="M181.843 25C180.266 25 178.893 24.7232 177.725 24.1696C176.586 23.616 175.636 22.9021 174.877 22.028C174.147 21.1538 173.592 20.1923 173.212 19.1434C172.861 18.0944 172.686 17.0746 172.686 16.0839C172.686 15.0932 172.861 14.0734 173.212 13.0245C173.592 11.9464 174.161 10.9557 174.921 10.0524C175.68 9.14918 176.629 8.42074 177.769 7.86713C178.908 7.28438 180.266 7.00758 181.843 7.03671C183.42 7.00758 184.779 7.28438 185.918 7.86713C187.057 8.42074 188.006 9.14918 188.766 10.0524C189.525 10.9557 190.08 11.9464 190.43 13.0245C190.81 14.0734 191 15.0932 191 16.0839C191 17.0746 190.81 18.0944 190.43 19.1434C190.08 20.1923 189.525 21.1538 188.766 22.028C188.035 22.9021 187.086 23.616 185.918 24.1696C184.779 24.7232 183.42 25 181.843 25ZM181.843 19.8864C182.456 19.8864 182.997 19.7698 183.464 19.5367C183.961 19.3036 184.37 18.9977 184.691 18.6189C185.041 18.2401 185.29 17.8176 185.436 17.3514C185.611 16.8852 185.699 16.4336 185.699 15.9965C185.699 15.5594 185.611 15.1224 185.436 14.6853C185.261 14.2191 185.012 13.8112 184.691 13.4615C184.37 13.0827 183.961 12.7768 183.464 12.5437C182.997 12.2815 182.456 12.1503 181.843 12.1503C181.23 12.1503 180.675 12.2815 180.178 12.5437C179.711 12.7768 179.317 13.0827 178.995 13.4615C178.674 13.8112 178.426 14.2191 178.25 14.6853C178.075 15.1224 177.988 15.5594 177.988 15.9965C177.988 16.4336 178.061 16.8852 178.207 17.3514C178.382 17.8176 178.63 18.2401 178.951 18.6189C179.302 18.9977 179.711 19.3036 180.178 19.5367C180.675 19.7698 181.23 19.8864 181.843 19.8864Z" fill="white"/>
</svg>
