<svg width="324" height="84" viewBox="0 0 324 84" fill="none" xmlns="http://www.w3.org/2000/svg">
<g clip-path="url(#clip0_1901_68)">
<path fill-rule="evenodd" clip-rule="evenodd" d="M45 0.300049C44.2 0.300049 28.2 0.600049 15.6 9.60005C7.50002 15.5 0.800018 25.1 0.800018 40.8C0.800018 80.7001 36.7 83.7 39.1 83.7C52.3 83.7 44.6 69.2 55 69.1C66.1 69 59.2 83.7 69.4 83.7C79.6 83.7 73.5 68.4 83.8 68.7C94.1 69 90 83.7 97.7 83.7C105.4 83.7 115 69.4 115 54.5C115 39.6 102.6 2.10005 45 0.300049Z" fill="white"/>
<path fill-rule="evenodd" clip-rule="evenodd" d="M44.3 0.300049C43.5 0.300049 27.5 0.600049 14.9 9.60005C6.8 15.4 0.100006 25.1 0.100006 40.8C0.100006 80.7001 36 83.7 38.4 83.7C51.6 83.7 43.9 69.2 54.3 69.1C65.4 69 58.5 83.7 68.7 83.7C78.9 83.7 72.8 68.4 83.1 68.7C93.4 69 89.3 83.7 97 83.7C104.7 83.7 114.3 69.4 114.3 54.5C114.3 39.6 101.9 2.10005 44.3 0.300049Z" fill="url(#paint0_linear_1901_68)" stroke="#FF7900" stroke-width="0.1" stroke-miterlimit="10"/>
<path fill-rule="evenodd" clip-rule="evenodd" d="M11.2 21.8001C8.10001 19.5001 11.9 14.8001 14.9 9.6001C6.8 15.4001 0.100006 25.1001 0.100006 40.8001C0.100006 80.7001 36 83.7001 38.4 83.7001C51.6 83.7001 44.1 69.1001 54.3 69.1001C64.5 69.1001 72.9 54.0001 72.9 48.9001C72.9 43.8001 71.9 43.0001 70.6 42.0001C69.3 40.9001 60.2 38.0001 60.2 38.0001C60.2 38.0001 56.2 28.0001 47.4 26.0001C38.6 24.0001 15.4 25.1001 11.2 21.8001Z" fill="url(#paint1_linear_1901_68)" stroke="#FF4800" stroke-width="0.1" stroke-miterlimit="10"/>
<path d="M11.2 21.8001C8.10001 19.5001 11.9 14.8001 14.9 9.6001C6.8 15.4001 0.100006 25.1001 0.100006 40.8001C0.100006 80.7001 36 83.7001 38.4 83.7001C51.6 83.7001 44.1 69.1001 54.3 69.1001C64.5 69.1001 72.9 54.0001 72.9 48.9001C72.9 43.8001 71.9 43.0001 70.6 42.0001C69.3 40.9001 60.2 38.0001 60.2 38.0001C60.2 38.0001 56.2 28.0001 47.4 26.0001C38.6 24.0001 15.4 25.1001 11.2 21.8001Z" fill="url(#paint2_linear_1901_68)"/>
<path fill-rule="evenodd" clip-rule="evenodd" d="M67.5 40.5001C71.1 41.5001 72.7 43.5001 72.7 46.0001C72.5 47.8001 69.1 46.6001 67.9 45.7001C66.8 44.9001 63.9 39.6001 67.5 40.5001Z" fill="white"/>
<path d="M52.4 44.5C53.5598 44.5 54.5 43.5598 54.5 42.4001C54.5 41.2403 53.5598 40.3 52.4 40.3C51.2402 40.3 50.3 41.2403 50.3 42.4001C50.3 43.5598 51.2402 44.5 52.4 44.5Z" fill="white"/>
<path fill-rule="evenodd" clip-rule="evenodd" d="M35.8 35.1C38.1 33.8 40.6 33.9 40.6 33.9C40.6 33.9 36.6 28.1 32.5 31.6C28.4 35.1 34 39 34 39C34 39 33.5 36.4 35.8 35.1Z" fill="white"/>
<path fill-rule="evenodd" clip-rule="evenodd" d="M36.5 35.1C38.8 33.8 41.3 33.9 41.3 33.9C41.3 33.9 37.3 28.1 33.2 31.6C29.1 35.1 34.1 39.4 34.1 39.4C34.1 39.4 34.2 36.4 36.5 35.1Z" fill="url(#paint3_radial_1901_68)"/>
<path d="M52.7 44.3C53.8046 44.3 54.7 43.4046 54.7 42.3C54.7 41.1955 53.8046 40.3 52.7 40.3C51.5954 40.3 50.7 41.1955 50.7 42.3C50.7 43.4046 51.5954 44.3 52.7 44.3Z" fill="#F06800"/>
<path d="M137.172 7.15625C140.12 7.15625 142.271 7.79167 143.625 9.0625C144.979 10.3229 145.656 12.0625 145.656 14.2812C145.656 15.2812 145.505 16.2396 145.203 17.1562C144.901 18.0625 144.406 18.8698 143.719 19.5781C143.042 20.2865 142.135 20.849 141 21.2656C139.865 21.6719 138.464 21.875 136.797 21.875H134.719V30H129.875V7.15625H137.172ZM136.922 11.125H134.719V17.9062H136.312C137.219 17.9062 138.005 17.7865 138.672 17.5469C139.339 17.3073 139.854 16.9323 140.219 16.4219C140.583 15.9115 140.766 15.2552 140.766 14.4531C140.766 13.3281 140.453 12.4948 139.828 11.9531C139.203 11.401 138.234 11.125 136.922 11.125ZM156.75 12.1719C159.094 12.1719 160.891 12.6823 162.141 13.7031C163.391 14.724 164.016 16.276 164.016 18.3594V30H160.688L159.766 27.625H159.641C159.141 28.25 158.63 28.7604 158.109 29.1562C157.589 29.5521 156.99 29.8438 156.312 30.0312C155.635 30.2188 154.812 30.3125 153.844 30.3125C152.812 30.3125 151.885 30.1146 151.062 29.7188C150.25 29.3229 149.609 28.7188 149.141 27.9062C148.672 27.0833 148.438 26.0417 148.438 24.7812C148.438 22.9271 149.089 21.5625 150.391 20.6875C151.693 19.8021 153.646 19.3125 156.25 19.2188L159.281 19.125V18.3594C159.281 17.4427 159.042 16.7708 158.562 16.3438C158.083 15.9167 157.417 15.7031 156.562 15.7031C155.719 15.7031 154.891 15.8229 154.078 16.0625C153.266 16.3021 152.453 16.6042 151.641 16.9688L150.062 13.75C150.99 13.2604 152.026 12.875 153.172 12.5938C154.328 12.3125 155.521 12.1719 156.75 12.1719ZM159.281 21.9062L157.438 21.9688C155.896 22.0104 154.823 22.2865 154.219 22.7969C153.625 23.3073 153.328 23.9792 153.328 24.8125C153.328 25.5417 153.542 26.0625 153.969 26.375C154.396 26.6771 154.953 26.8281 155.641 26.8281C156.661 26.8281 157.521 26.526 158.219 25.9219C158.927 25.3177 159.281 24.4583 159.281 23.3438V21.9062ZM175.297 12.2031C176.557 12.2031 177.734 12.3698 178.828 12.7031C179.922 13.026 180.807 13.5312 181.484 14.2188C182.161 14.8958 182.5 15.7708 182.5 16.8438C182.5 17.8958 182.182 18.7344 181.547 19.3594C180.911 19.974 180.068 20.4167 179.016 20.6875V20.8438C179.755 21.0208 180.422 21.2604 181.016 21.5625C181.62 21.8646 182.099 22.2812 182.453 22.8125C182.807 23.3438 182.984 24.0417 182.984 24.9062C182.984 25.875 182.677 26.7708 182.062 27.5938C181.448 28.4062 180.505 29.0625 179.234 29.5625C177.974 30.0625 176.354 30.3125 174.375 30.3125C173.438 30.3125 172.552 30.2708 171.719 30.1875C170.896 30.1042 170.141 29.9844 169.453 29.8281C168.766 29.6615 168.167 29.4635 167.656 29.2344V25.2969C168.375 25.6302 169.26 25.9375 170.312 26.2188C171.375 26.5 172.505 26.6406 173.703 26.6406C174.568 26.6406 175.349 26.5781 176.047 26.4531C176.755 26.3281 177.312 26.1198 177.719 25.8281C178.135 25.526 178.344 25.125 178.344 24.625C178.344 24.1562 178.161 23.7708 177.797 23.4688C177.443 23.1562 176.896 22.9271 176.156 22.7812C175.427 22.625 174.5 22.5469 173.375 22.5469H171.531V19.25H173.281C174.865 19.25 176.089 19.1198 176.953 18.8594C177.818 18.599 178.25 18.1198 178.25 17.4219C178.25 16.8594 177.974 16.4375 177.422 16.1562C176.87 15.875 175.958 15.7344 174.688 15.7344C173.865 15.7344 172.958 15.8333 171.969 16.0312C170.979 16.2188 170.052 16.4896 169.188 16.8438L167.781 13.5156C168.792 13.1302 169.885 12.8177 171.062 12.5781C172.25 12.3281 173.661 12.2031 175.297 12.2031ZM196.438 12.2031C198.406 12.2031 199.995 12.9688 201.203 14.5C202.422 16.0312 203.031 18.276 203.031 21.2344C203.031 23.2135 202.745 24.8802 202.172 26.2344C201.599 27.5781 200.807 28.5938 199.797 29.2812C198.786 29.9688 197.625 30.3125 196.312 30.3125C195.469 30.3125 194.745 30.2083 194.141 30C193.536 29.7812 193.021 29.5052 192.594 29.1719C192.167 28.8281 191.797 28.4635 191.484 28.0781H191.234C191.318 28.4948 191.38 28.9219 191.422 29.3594C191.464 29.7969 191.484 30.224 191.484 30.6406V37.6875H186.719V12.5312H190.594L191.266 14.7969H191.484C191.797 14.3281 192.177 13.8958 192.625 13.5C193.073 13.1042 193.609 12.7917 194.234 12.5625C194.87 12.3229 195.604 12.2031 196.438 12.2031ZM194.906 16.0156C194.073 16.0156 193.411 16.1875 192.922 16.5312C192.432 16.875 192.073 17.3906 191.844 18.0781C191.625 18.7656 191.505 19.6354 191.484 20.6875V21.2031C191.484 22.3281 191.589 23.2812 191.797 24.0625C192.016 24.8438 192.375 25.4375 192.875 25.8438C193.385 26.25 194.083 26.4531 194.969 26.4531C195.698 26.4531 196.297 26.25 196.766 25.8438C197.234 25.4375 197.583 24.8438 197.812 24.0625C198.052 23.2708 198.172 22.3073 198.172 21.1719C198.172 19.4635 197.906 18.1771 197.375 17.3125C196.844 16.4479 196.021 16.0156 194.906 16.0156ZM214.125 12.1719C216.469 12.1719 218.266 12.6823 219.516 13.7031C220.766 14.724 221.391 16.276 221.391 18.3594V30H218.062L217.141 27.625H217.016C216.516 28.25 216.005 28.7604 215.484 29.1562C214.964 29.5521 214.365 29.8438 213.688 30.0312C213.01 30.2188 212.188 30.3125 211.219 30.3125C210.188 30.3125 209.26 30.1146 208.438 29.7188C207.625 29.3229 206.984 28.7188 206.516 27.9062C206.047 27.0833 205.812 26.0417 205.812 24.7812C205.812 22.9271 206.464 21.5625 207.766 20.6875C209.068 19.8021 211.021 19.3125 213.625 19.2188L216.656 19.125V18.3594C216.656 17.4427 216.417 16.7708 215.938 16.3438C215.458 15.9167 214.792 15.7031 213.938 15.7031C213.094 15.7031 212.266 15.8229 211.453 16.0625C210.641 16.3021 209.828 16.6042 209.016 16.9688L207.438 13.75C208.365 13.2604 209.401 12.875 210.547 12.5938C211.703 12.3125 212.896 12.1719 214.125 12.1719ZM216.656 21.9062L214.812 21.9688C213.271 22.0104 212.198 22.2865 211.594 22.7969C211 23.3073 210.703 23.9792 210.703 24.8125C210.703 25.5417 210.917 26.0625 211.344 26.375C211.771 26.6771 212.328 26.8281 213.016 26.8281C214.036 26.8281 214.896 26.526 215.594 25.9219C216.302 25.3177 216.656 24.4583 216.656 23.3438V21.9062ZM225.25 19.5312C225.25 16.9583 225.568 14.7708 226.203 12.9688C226.839 11.1667 227.849 9.72917 229.234 8.65625C230.62 7.57292 232.438 6.83854 234.688 6.45312C235.812 6.25521 236.953 6.09375 238.109 5.96875C239.276 5.83333 240.484 5.68229 241.734 5.51562L242.281 9.6875C241.74 9.75 241.151 9.81771 240.516 9.89062C239.88 9.96354 239.24 10.0417 238.594 10.125C237.948 10.1979 237.323 10.276 236.719 10.3594C236.115 10.4323 235.568 10.5052 235.078 10.5781C234.016 10.7448 233.13 11.0052 232.422 11.3594C231.714 11.7135 231.172 12.276 230.797 13.0469C230.422 13.8177 230.193 14.9271 230.109 16.375H230.344C230.594 15.9792 230.948 15.5781 231.406 15.1719C231.865 14.7552 232.432 14.4115 233.109 14.1406C233.786 13.8594 234.568 13.7188 235.453 13.7188C236.849 13.7188 238.057 14.0052 239.078 14.5781C240.099 15.151 240.885 16.0052 241.438 17.1406C242 18.2656 242.281 19.6719 242.281 21.3594C242.281 23.3385 241.917 24.9948 241.188 26.3281C240.469 27.651 239.469 28.6458 238.188 29.3125C236.906 29.9792 235.422 30.3125 233.734 30.3125C232.443 30.3125 231.276 30.0781 230.234 29.6094C229.193 29.1406 228.297 28.4479 227.547 27.5312C226.807 26.6146 226.24 25.4896 225.844 24.1562C225.448 22.8125 225.25 21.2708 225.25 19.5312ZM234.016 26.4531C234.693 26.4531 235.281 26.3073 235.781 26.0156C236.292 25.7135 236.688 25.224 236.969 24.5469C237.26 23.8594 237.406 22.9375 237.406 21.7812C237.406 20.3854 237.172 19.2812 236.703 18.4688C236.245 17.6458 235.458 17.2344 234.344 17.2344C233.667 17.2344 233.031 17.401 232.438 17.7344C231.854 18.0573 231.359 18.4323 230.953 18.8594C230.547 19.276 230.266 19.6302 230.109 19.9219C230.109 20.7448 230.172 21.5469 230.297 22.3281C230.432 23.099 230.646 23.7969 230.938 24.4219C231.229 25.0469 231.625 25.5417 232.125 25.9062C232.635 26.2708 233.266 26.4531 234.016 26.4531ZM262.094 21.2344C262.094 22.6927 261.896 23.9844 261.5 25.1094C261.115 26.2344 260.547 27.1875 259.797 27.9688C259.057 28.7396 258.161 29.3229 257.109 29.7188C256.068 30.1146 254.891 30.3125 253.578 30.3125C252.349 30.3125 251.219 30.1146 250.188 29.7188C249.167 29.3229 248.276 28.7396 247.516 27.9688C246.766 27.1875 246.182 26.2344 245.766 25.1094C245.359 23.9844 245.156 22.6927 245.156 21.2344C245.156 19.2969 245.5 17.6562 246.188 16.3125C246.875 14.9688 247.854 13.9479 249.125 13.25C250.396 12.5521 251.911 12.2031 253.672 12.2031C255.307 12.2031 256.755 12.5521 258.016 13.25C259.286 13.9479 260.281 14.9688 261 16.3125C261.729 17.6562 262.094 19.2969 262.094 21.2344ZM250.016 21.2344C250.016 22.3802 250.141 23.3438 250.391 24.125C250.641 24.9062 251.031 25.4948 251.562 25.8906C252.094 26.2865 252.786 26.4844 253.641 26.4844C254.484 26.4844 255.167 26.2865 255.688 25.8906C256.219 25.4948 256.604 24.9062 256.844 24.125C257.094 23.3438 257.219 22.3802 257.219 21.2344C257.219 20.0781 257.094 19.1198 256.844 18.3594C256.604 17.5885 256.219 17.0104 255.688 16.625C255.156 16.2396 254.464 16.0469 253.609 16.0469C252.349 16.0469 251.432 16.4792 250.859 17.3438C250.297 18.2083 250.016 19.5052 250.016 21.2344ZM280.484 16.1094H274.766V30H270V16.1094H264.266V12.5312H280.484V16.1094ZM290.906 12.1719C293.25 12.1719 295.047 12.6823 296.297 13.7031C297.547 14.724 298.172 16.276 298.172 18.3594V30H294.844L293.922 27.625H293.797C293.297 28.25 292.786 28.7604 292.266 29.1562C291.745 29.5521 291.146 29.8438 290.469 30.0312C289.792 30.2188 288.969 30.3125 288 30.3125C286.969 30.3125 286.042 30.1146 285.219 29.7188C284.406 29.3229 283.766 28.7188 283.297 27.9062C282.828 27.0833 282.594 26.0417 282.594 24.7812C282.594 22.9271 283.245 21.5625 284.547 20.6875C285.849 19.8021 287.802 19.3125 290.406 19.2188L293.438 19.125V18.3594C293.438 17.4427 293.198 16.7708 292.719 16.3438C292.24 15.9167 291.573 15.7031 290.719 15.7031C289.875 15.7031 289.047 15.8229 288.234 16.0625C287.422 16.3021 286.609 16.6042 285.797 16.9688L284.219 13.75C285.146 13.2604 286.182 12.875 287.328 12.5938C288.484 12.3125 289.677 12.1719 290.906 12.1719ZM293.438 21.9062L291.594 21.9688C290.052 22.0104 288.979 22.2865 288.375 22.7969C287.781 23.3073 287.484 23.9792 287.484 24.8125C287.484 25.5417 287.698 26.0625 288.125 26.375C288.552 26.6771 289.109 26.8281 289.797 26.8281C290.818 26.8281 291.677 26.526 292.375 25.9219C293.083 25.3177 293.438 24.4583 293.438 23.3438V21.9062ZM318.734 30H313.969V16.1094H309.578C309.359 18.6719 309.099 20.8542 308.797 22.6562C308.495 24.4583 308.109 25.9271 307.641 27.0625C307.172 28.1875 306.589 29.0104 305.891 29.5312C305.193 30.0521 304.333 30.3125 303.312 30.3125C302.75 30.3125 302.245 30.2708 301.797 30.1875C301.359 30.1042 300.958 29.9792 300.594 29.8125V26C300.823 26.0938 301.068 26.1719 301.328 26.2344C301.589 26.2865 301.854 26.3125 302.125 26.3125C302.427 26.3125 302.714 26.1927 302.984 25.9531C303.255 25.7135 303.51 25.3021 303.75 24.7188C303.99 24.125 304.214 23.3073 304.422 22.2656C304.641 21.224 304.839 19.9062 305.016 18.3125C305.193 16.7188 305.359 14.7917 305.516 12.5312H318.734V30ZM130.125 51.1562H136.594C139.448 51.1562 141.594 51.5833 143.031 52.4375C144.469 53.2917 145.188 54.7448 145.188 56.7969C145.188 57.6823 145.016 58.4792 144.672 59.1875C144.339 59.8854 143.849 60.4635 143.203 60.9219C142.557 61.3802 141.76 61.6979 140.812 61.875V62.0312C141.812 62.1875 142.698 62.474 143.469 62.8906C144.24 63.3073 144.844 63.8906 145.281 64.6406C145.719 65.3906 145.938 66.3438 145.938 67.5C145.938 68.9062 145.609 70.0938 144.953 71.0625C144.307 72.0312 143.391 72.7656 142.203 73.2656C141.016 73.7552 139.609 74 137.984 74H130.125V51.1562ZM132.781 60.9531H137.156C139.146 60.9531 140.521 60.625 141.281 59.9688C142.052 59.3125 142.438 58.3542 142.438 57.0938C142.438 55.7917 141.979 54.8542 141.062 54.2812C140.156 53.7083 138.708 53.4219 136.719 53.4219H132.781V60.9531ZM132.781 63.1875V71.7344H137.531C139.562 71.7344 141 71.3385 141.844 70.5469C142.688 69.7448 143.109 68.6667 143.109 67.3125C143.109 66.4479 142.917 65.7083 142.531 65.0938C142.156 64.4792 141.542 64.0104 140.688 63.6875C139.844 63.3542 138.714 63.1875 137.297 63.1875H132.781ZM157.016 56.5625C158.474 56.5625 159.724 56.8854 160.766 57.5312C161.807 58.1771 162.604 59.0833 163.156 60.25C163.708 61.4062 163.984 62.7604 163.984 64.3125V65.9219H152.156C152.188 67.9323 152.688 69.4635 153.656 70.5156C154.625 71.5677 155.99 72.0938 157.75 72.0938C158.833 72.0938 159.792 71.9948 160.625 71.7969C161.458 71.599 162.323 71.3073 163.219 70.9219V73.2031C162.354 73.5885 161.495 73.8698 160.641 74.0469C159.797 74.224 158.797 74.3125 157.641 74.3125C155.995 74.3125 154.557 73.9792 153.328 73.3125C152.109 72.6354 151.161 71.6458 150.484 70.3438C149.807 69.0417 149.469 67.4479 149.469 65.5625C149.469 63.7188 149.776 62.125 150.391 60.7812C151.016 59.4271 151.891 58.3854 153.016 57.6562C154.151 56.9271 155.484 56.5625 157.016 56.5625ZM156.984 58.6875C155.599 58.6875 154.495 59.1406 153.672 60.0469C152.849 60.9531 152.359 62.2188 152.203 63.8438H161.266C161.255 62.8229 161.094 61.9271 160.781 61.1562C160.479 60.375 160.016 59.7708 159.391 59.3438C158.766 58.9062 157.964 58.6875 156.984 58.6875ZM167.5 63.7188C167.5 61.2812 167.734 59.2031 168.203 57.4844C168.672 55.7552 169.396 54.3698 170.375 53.3281C171.365 52.276 172.635 51.5573 174.188 51.1719C175.521 50.8073 176.875 50.4948 178.25 50.2344C179.625 49.9635 180.964 49.7292 182.266 49.5312L182.719 51.8125C182.062 51.9062 181.375 52.0156 180.656 52.1406C179.938 52.2552 179.219 52.3802 178.5 52.5156C177.781 52.6406 177.104 52.776 176.469 52.9219C175.833 53.0573 175.271 53.1979 174.781 53.3438C173.896 53.5833 173.13 54 172.484 54.5938C171.849 55.1875 171.344 56.0052 170.969 57.0469C170.604 58.0885 170.385 59.401 170.312 60.9844H170.5C170.812 60.526 171.24 60.0729 171.781 59.625C172.323 59.1771 172.969 58.8073 173.719 58.5156C174.469 58.2135 175.312 58.0625 176.25 58.0625C177.729 58.0625 178.964 58.3854 179.953 59.0312C180.943 59.6667 181.688 60.5625 182.188 61.7188C182.688 62.875 182.938 64.2292 182.938 65.7812C182.938 67.6458 182.615 69.2135 181.969 70.4844C181.333 71.7552 180.438 72.7135 179.281 73.3594C178.125 73.9948 176.766 74.3125 175.203 74.3125C173.995 74.3125 172.911 74.0781 171.953 73.6094C171.005 73.1406 170.198 72.4531 169.531 71.5469C168.875 70.6406 168.37 69.5312 168.016 68.2188C167.672 66.9062 167.5 65.4062 167.5 63.7188ZM175.406 72.1562C176.396 72.1562 177.245 71.9479 177.953 71.5312C178.672 71.1146 179.224 70.4583 179.609 69.5625C180.005 68.6562 180.203 67.4792 180.203 66.0312C180.203 64.2188 179.854 62.8021 179.156 61.7812C178.469 60.75 177.365 60.2344 175.844 60.2344C174.896 60.2344 174.036 60.4375 173.266 60.8438C172.495 61.2396 171.844 61.7135 171.312 62.2656C170.781 62.8177 170.396 63.3125 170.156 63.75C170.156 64.8125 170.234 65.8438 170.391 66.8438C170.547 67.8438 170.818 68.7448 171.203 69.5469C171.589 70.349 172.12 70.9844 172.797 71.4531C173.484 71.9219 174.354 72.1562 175.406 72.1562ZM197.859 74L190.188 53.7812H190.062C190.104 54.2083 190.141 54.7292 190.172 55.3438C190.203 55.9583 190.229 56.6302 190.25 57.3594C190.271 58.0781 190.281 58.8125 190.281 59.5625V74H187.812V51.1562H191.75L198.984 70.1562H199.094L206.438 51.1562H210.344V74H207.719V59.375C207.719 58.6979 207.729 58.0208 207.75 57.3438C207.771 56.6562 207.797 56.0104 207.828 55.4062C207.859 54.7917 207.891 54.2604 207.922 53.8125H207.797L200.031 74H197.859ZM222.797 56.5625C224.255 56.5625 225.505 56.8854 226.547 57.5312C227.589 58.1771 228.385 59.0833 228.938 60.25C229.49 61.4062 229.766 62.7604 229.766 64.3125V65.9219H217.938C217.969 67.9323 218.469 69.4635 219.438 70.5156C220.406 71.5677 221.771 72.0938 223.531 72.0938C224.615 72.0938 225.573 71.9948 226.406 71.7969C227.24 71.599 228.104 71.3073 229 70.9219V73.2031C228.135 73.5885 227.276 73.8698 226.422 74.0469C225.578 74.224 224.578 74.3125 223.422 74.3125C221.776 74.3125 220.339 73.9792 219.109 73.3125C217.891 72.6354 216.943 71.6458 216.266 70.3438C215.589 69.0417 215.25 67.4479 215.25 65.5625C215.25 63.7188 215.557 62.125 216.172 60.7812C216.797 59.4271 217.672 58.3854 218.797 57.6562C219.932 56.9271 221.266 56.5625 222.797 56.5625ZM222.766 58.6875C221.38 58.6875 220.276 59.1406 219.453 60.0469C218.63 60.9531 218.141 62.2188 217.984 63.8438H227.047C227.036 62.8229 226.875 61.9271 226.562 61.1562C226.26 60.375 225.797 59.7708 225.172 59.3438C224.547 58.9062 223.745 58.6875 222.766 58.6875ZM246.719 56.875V71.7969H249.172V79.9219H246.656V74H234.531V79.9219H232.047V71.7969H233.391C234.37 70.4427 235.182 68.9583 235.828 67.3438C236.474 65.7292 236.964 64.0365 237.297 62.2656C237.63 60.4844 237.807 58.6875 237.828 56.875H246.719ZM244.203 58.9375H240.141C240.047 60.4583 239.823 62.0052 239.469 63.5781C239.125 65.151 238.667 66.651 238.094 68.0781C237.521 69.4948 236.854 70.7344 236.094 71.7969H244.203V58.9375ZM266.188 61.1719C266.188 62.2448 265.875 63.0833 265.25 63.6875C264.625 64.2812 263.818 64.6823 262.828 64.8906V65.0156C263.901 65.1615 264.823 65.5469 265.594 66.1719C266.375 66.7865 266.766 67.7292 266.766 69C266.766 69.9792 266.531 70.8438 266.062 71.5938C265.594 72.3438 264.859 72.9323 263.859 73.3594C262.859 73.7865 261.557 74 259.953 74H252.578V56.875H259.891C261.12 56.875 262.203 57.0156 263.141 57.2969C264.089 57.5677 264.833 58.0156 265.375 58.6406C265.917 59.2656 266.188 60.1094 266.188 61.1719ZM264.062 69C264.062 67.9896 263.677 67.2604 262.906 66.8125C262.146 66.3646 261.036 66.1406 259.578 66.1406H255.188V71.8906H259.641C261.078 71.8906 262.172 71.6719 262.922 71.2344C263.682 70.7865 264.062 70.0417 264.062 69ZM263.547 61.4688C263.547 60.6562 263.25 60.0521 262.656 59.6562C262.062 59.25 261.089 59.0469 259.734 59.0469H255.188V63.9688H259.281C260.688 63.9688 261.75 63.7656 262.469 63.3594C263.188 62.9531 263.547 62.3229 263.547 61.4688ZM277.547 56.5625C279.005 56.5625 280.255 56.8854 281.297 57.5312C282.339 58.1771 283.135 59.0833 283.688 60.25C284.24 61.4062 284.516 62.7604 284.516 64.3125V65.9219H272.688C272.719 67.9323 273.219 69.4635 274.188 70.5156C275.156 71.5677 276.521 72.0938 278.281 72.0938C279.365 72.0938 280.323 71.9948 281.156 71.7969C281.99 71.599 282.854 71.3073 283.75 70.9219V73.2031C282.885 73.5885 282.026 73.8698 281.172 74.0469C280.328 74.224 279.328 74.3125 278.172 74.3125C276.526 74.3125 275.089 73.9792 273.859 73.3125C272.641 72.6354 271.693 71.6458 271.016 70.3438C270.339 69.0417 270 67.4479 270 65.5625C270 63.7188 270.307 62.125 270.922 60.7812C271.547 59.4271 272.422 58.3854 273.547 57.6562C274.682 56.9271 276.016 56.5625 277.547 56.5625ZM277.516 58.6875C276.13 58.6875 275.026 59.1406 274.203 60.0469C273.38 60.9531 272.891 62.2188 272.734 63.8438H281.797C281.786 62.8229 281.625 61.9271 281.312 61.1562C281.01 60.375 280.547 59.7708 279.922 59.3438C279.297 58.9062 278.495 58.6875 277.516 58.6875ZM301.469 56.875V71.7969H303.922V79.9219H301.406V74H289.281V79.9219H286.797V71.7969H288.141C289.12 70.4427 289.932 68.9583 290.578 67.3438C291.224 65.7292 291.714 64.0365 292.047 62.2656C292.38 60.4844 292.557 58.6875 292.578 56.875H301.469ZM298.953 58.9375H294.891C294.797 60.4583 294.573 62.0052 294.219 63.5781C293.875 65.151 293.417 66.651 292.844 68.0781C292.271 69.4948 291.604 70.7344 290.844 71.7969H298.953V58.9375ZM309.938 63.9375H315.188C316.646 63.9375 317.859 64.1198 318.828 64.4844C319.797 64.849 320.521 65.3906 321 66.1094C321.49 66.8281 321.734 67.7188 321.734 68.7812C321.734 69.8438 321.495 70.7656 321.016 71.5469C320.547 72.3281 319.818 72.9323 318.828 73.3594C317.849 73.7865 316.583 74 315.031 74H307.328V56.875H309.938V63.9375ZM319.125 68.9062C319.125 67.8542 318.75 67.125 318 66.7188C317.26 66.3021 316.224 66.0938 314.891 66.0938H309.938V71.8906H314.906C316.156 71.8906 317.172 71.6615 317.953 71.2031C318.734 70.7344 319.125 69.9688 319.125 68.9062Z" fill="white"/>
</g>
<defs>
<linearGradient id="paint0_linear_1901_68" x1="80.1352" y1="7.18405" x2="34.3663" y2="86.458" gradientUnits="userSpaceOnUse">
<stop stop-color="#FD9C03"/>
<stop offset="1" stop-color="#F06800"/>
</linearGradient>
<linearGradient id="paint1_linear_1901_68" x1="45.8428" y1="24.3366" x2="16.0742" y2="75.8972" gradientUnits="userSpaceOnUse">
<stop stop-color="#FD9C03"/>
<stop offset="1" stop-color="#F06800"/>
</linearGradient>
<linearGradient id="paint2_linear_1901_68" x1="45.8428" y1="24.3366" x2="16.0742" y2="75.8972" gradientUnits="userSpaceOnUse">
<stop offset="1.19808e-07" stop-color="#FDD400"/>
<stop offset="1" stop-color="#F8AD04"/>
</linearGradient>
<radialGradient id="paint3_radial_1901_68" cx="0" cy="0" r="1" gradientUnits="userSpaceOnUse" gradientTransform="translate(36.3974 34.9426) scale(4.6664 4.6664)">
<stop stop-color="#FD9C03"/>
<stop offset="1" stop-color="#F06800"/>
</radialGradient>
<clipPath id="clip0_1901_68">
<rect width="324" height="84" fill="white"/>
</clipPath>
</defs>
</svg>
