<svg width="36" height="36" viewBox="0 0 36 36" fill="none" xmlns="http://www.w3.org/2000/svg">
<path d="M10.4395 0H25.5595C31.3195 0 35.9995 4.68 35.9995 10.44V25.56C35.9995 28.3289 34.8996 30.9843 32.9417 32.9422C30.9838 34.9001 28.3284 36 25.5595 36H10.4395C4.67951 36 -0.000488281 31.32 -0.000488281 25.56V10.44C-0.000488281 7.67114 1.09944 5.01569 3.05732 3.05781C5.0152 1.09993 7.67065 0 10.4395 0ZM10.0795 3.6C8.36091 3.6 6.7127 4.28271 5.49746 5.49795C4.28222 6.71318 3.59951 8.3614 3.59951 10.08V25.92C3.59951 29.502 6.49751 32.4 10.0795 32.4H25.9195C27.6381 32.4 29.2863 31.7173 30.5016 30.5021C31.7168 29.2868 32.3995 27.6386 32.3995 25.92V10.08C32.3995 6.498 29.5015 3.6 25.9195 3.6H10.0795ZM27.4495 6.3C28.0462 6.3 28.6185 6.53705 29.0405 6.95901C29.4625 7.38097 29.6995 7.95326 29.6995 8.55C29.6995 9.14674 29.4625 9.71903 29.0405 10.141C28.6185 10.5629 28.0462 10.8 27.4495 10.8C26.8528 10.8 26.2805 10.5629 25.8585 10.141C25.4366 9.71903 25.1995 9.14674 25.1995 8.55C25.1995 7.95326 25.4366 7.38097 25.8585 6.95901C26.2805 6.53705 26.8528 6.3 27.4495 6.3ZM17.9995 9C20.3865 9 22.6756 9.94821 24.3635 11.636C26.0513 13.3239 26.9995 15.6131 26.9995 18C26.9995 20.3869 26.0513 22.6761 24.3635 24.364C22.6756 26.0518 20.3865 27 17.9995 27C15.6126 27 13.3234 26.0518 11.6356 24.364C9.94772 22.6761 8.99951 20.3869 8.99951 18C8.99951 15.6131 9.94772 13.3239 11.6356 11.636C13.3234 9.94821 15.6126 9 17.9995 9ZM17.9995 12.6C16.5673 12.6 15.1938 13.1689 14.1811 14.1816C13.1684 15.1943 12.5995 16.5678 12.5995 18C12.5995 19.4322 13.1684 20.8057 14.1811 21.8184C15.1938 22.8311 16.5673 23.4 17.9995 23.4C19.4317 23.4 20.8052 22.8311 21.8179 21.8184C22.8306 20.8057 23.3995 19.4322 23.3995 18C23.3995 16.5678 22.8306 15.1943 21.8179 14.1816C20.8052 13.1689 19.4317 12.6 17.9995 12.6Z" fill="white"/>
</svg>
