<svg width="36" height="36" viewBox="0 0 36 36" fill="none" xmlns="http://www.w3.org/2000/svg">
<path d="M2.51951 2.52C-0.000487804 5.064 -0.000488281 9.132 -0.000488281 17.28V18.72C-0.000488281 26.856 -0.000487804 30.924 2.51951 33.48C5.06351 36 9.13151 36 17.2795 36H18.7195C26.8555 36 30.9235 36 33.4795 33.48C35.9995 30.936 35.9995 26.868 35.9995 18.72V17.28C35.9995 9.144 35.9995 5.076 33.4795 2.52C30.9355 4.76837e-07 26.8675 0 18.7195 0H17.2795C9.14351 0 5.07551 4.76837e-07 2.51951 2.52ZM6.07151 10.956H10.1995C10.3315 17.82 13.3555 20.724 15.7555 21.324V10.956H19.6315V16.872C21.9955 16.62 24.4915 13.92 25.3315 10.944H29.1955C28.8806 12.4846 28.2512 13.9436 27.3469 15.2299C26.4425 16.5163 25.2826 17.6023 23.9395 18.42C25.4384 19.1657 26.7621 20.2209 27.8232 21.5157C28.8843 22.8106 29.6588 24.3158 30.0955 25.932H25.8355C24.9235 23.088 22.6435 20.88 19.6315 20.58V25.932H19.1515C10.9435 25.932 6.26351 20.316 6.07151 10.956Z" fill="white"/>
</svg>
