<svg width="40" height="32" viewBox="0 0 40 32" fill="none" xmlns="http://www.w3.org/2000/svg">
<path d="M19.9995 0C21.7095 0 23.4635 0.0440002 25.1635 0.116L27.1715 0.212L29.0935 0.326L30.8935 0.448L32.5375 0.576C34.3216 0.712555 36.0004 1.47389 37.2786 2.72608C38.5567 3.97826 39.3524 5.64108 39.5255 7.422L39.6055 8.272L39.7555 10.092C39.8955 11.978 39.9995 14.034 39.9995 16C39.9995 17.966 39.8955 20.022 39.7555 21.908L39.6055 23.728C39.5795 24.02 39.5535 24.302 39.5255 24.578C39.3523 26.3592 38.5564 28.0223 37.2778 29.2745C35.9992 30.5268 34.32 31.2879 32.5355 31.424L30.8955 31.55L29.0955 31.674L27.1715 31.788L25.1635 31.884C23.4432 31.9588 21.7215 31.9974 19.9995 32C18.2776 31.9974 16.5558 31.9588 14.8355 31.884L12.8275 31.788L10.9055 31.674L9.10551 31.55L7.46151 31.424C5.67741 31.2874 3.99862 30.5261 2.72046 29.2739C1.4423 28.0217 0.64666 26.3589 0.473512 24.578L0.393512 23.728L0.243512 21.908C0.0905868 19.9423 0.00919976 17.9716 -0.000488281 16C-0.000488281 14.034 0.103512 11.978 0.243512 10.092L0.393512 8.272C0.419512 7.98 0.445512 7.698 0.473512 7.422C0.646593 5.6414 1.44195 3.97883 2.7197 2.72669C3.99745 1.47454 5.67577 0.713005 7.45951 0.576L9.10151 0.448L10.9015 0.326L12.8255 0.212L14.8335 0.116C16.5545 0.0412659 18.2769 0.00259057 19.9995 0ZM19.9995 4C18.3495 4 16.6515 4.044 14.9995 4.112L13.0435 4.206L11.1655 4.316L9.40151 4.436L7.78551 4.562C6.93617 4.62226 6.1356 4.98129 5.5257 5.57545C4.9158 6.16961 4.53596 6.96053 4.45351 7.808C4.21951 10.226 3.99951 13.236 3.99951 16C3.99951 18.764 4.21951 21.774 4.45351 24.192C4.62351 25.936 6.00751 27.292 7.78551 27.438L9.40151 27.562L11.1655 27.682L13.0435 27.794L14.9995 27.888C16.6515 27.956 18.3495 28 19.9995 28C21.6495 28 23.3475 27.956 24.9995 27.888L26.9555 27.794L28.8335 27.684L30.5975 27.564L32.2135 27.438C33.0629 27.3777 33.8634 27.0187 34.4733 26.4245C35.0832 25.8304 35.4631 25.0395 35.5455 24.192C35.7795 21.774 35.9995 18.764 35.9995 16C35.9995 13.236 35.7795 10.226 35.5455 7.808C35.4631 6.96053 35.0832 6.16961 34.4733 5.57545C33.8634 4.98129 33.0629 4.62226 32.2135 4.562L30.5975 4.438L28.8335 4.318L26.9555 4.206L24.9995 4.112C23.3338 4.04033 21.6668 4.00299 19.9995 4ZM15.9995 11.15C15.9994 10.9545 16.047 10.762 16.1382 10.5891C16.2295 10.4162 16.3616 10.2683 16.523 10.1581C16.6845 10.0479 16.8704 9.97879 17.0646 9.95681C17.2589 9.93484 17.4555 9.96065 17.6375 10.032L17.7995 10.112L26.1995 14.96C26.3668 15.0565 26.5083 15.192 26.612 15.3549C26.7157 15.5178 26.7786 15.7033 26.7953 15.8957C26.812 16.0881 26.782 16.2817 26.7079 16.46C26.6337 16.6383 26.5177 16.7961 26.3695 16.92L26.1995 17.04L17.7995 21.89C17.6302 21.988 17.4396 22.0432 17.2441 22.0507C17.0486 22.0582 16.8543 22.0177 16.678 21.933C16.5017 21.8482 16.3489 21.7216 16.2327 21.5642C16.1165 21.4068 16.0406 21.2234 16.0115 21.03L15.9995 20.85V11.15Z" fill="white"/>
</svg>
